<svg width="453" height="150" viewBox="0 0 453 150" fill="none" xmlns="http://www.w3.org/2000/svg">
<g clip-path="url(#clip0_226_179)">
<rect width="453" height="150" fill="white"/>
<path d="M69.5 148C86.3413 148.01 102.613 141.914 115.286 130.847C127.959 119.78 136.17 104.496 138.393 87.8387C140.615 71.1816 136.696 54.2864 127.365 40.2971C118.035 26.3078 103.928 16.1774 87.6706 11.7912C88.0667 10.4148 88.1368 8.96545 87.8754 7.55742C87.614 6.14939 87.0281 4.82125 86.1642 3.67782C85.3002 2.53438 84.1817 1.60693 82.897 0.968671C81.6122 0.330409 80.1964 -0.00120312 78.7613 3.27989e-06H60.2387C58.8036 -0.00120312 57.3877 0.330409 56.103 0.968671C54.8183 1.60693 53.6998 2.53438 52.8358 3.67782C51.9719 4.82125 51.3861 6.14939 51.1246 7.55742C50.8632 8.96545 50.9333 10.4148 51.3294 11.7912C35.0719 16.1774 20.9653 26.3078 11.6348 40.2971C2.30421 54.2864 -1.61466 71.1816 0.607437 87.8387C2.82954 104.496 11.0412 119.78 23.7143 130.847C36.3875 141.914 52.6587 148.01 69.5 148ZM129.698 78.6943C129.698 94.6245 123.356 109.902 112.067 121.167C100.777 132.431 85.4656 138.759 69.5 138.759C53.5344 138.759 38.2228 132.431 26.9334 121.167C15.644 109.902 9.30175 94.6245 9.30175 78.6943C9.30175 62.7641 15.644 47.4863 26.9334 36.222C38.2228 24.9576 53.5344 18.6294 69.5 18.6294C85.4656 18.6294 100.777 24.9576 112.067 36.222C123.356 47.4863 129.698 62.7641 129.698 78.6943Z" fill="#FFD8AA"/>
<path d="M60.6386 69.644L102 46L78.353 87.356L37 111L60.6386 69.644Z" fill="#FFD8AA"/>
<path d="M198.773 30.3182H187.409C187.258 29.1515 186.947 28.0985 186.477 27.1591C186.008 26.2197 185.386 25.4167 184.614 24.75C183.841 24.0833 182.924 23.5758 181.864 23.2273C180.818 22.8636 179.659 22.6818 178.386 22.6818C176.129 22.6818 174.182 23.2348 172.545 24.3409C170.924 25.447 169.674 27.0455 168.795 29.1364C167.932 31.2273 167.5 33.7576 167.5 36.7273C167.5 39.8182 167.939 42.4091 168.818 44.5C169.712 46.5758 170.962 48.1439 172.568 49.2045C174.189 50.25 176.106 50.7727 178.318 50.7727C179.561 50.7727 180.689 50.6136 181.705 50.2955C182.735 49.9773 183.636 49.5152 184.409 48.9091C185.197 48.2879 185.841 47.5379 186.341 46.6591C186.856 45.7652 187.212 44.7576 187.409 43.6364L198.773 43.7045C198.576 45.7652 197.977 47.7955 196.977 49.7955C195.992 51.7955 194.636 53.6212 192.909 55.2727C191.182 56.9091 189.076 58.2121 186.591 59.1818C184.121 60.1515 181.288 60.6364 178.091 60.6364C173.879 60.6364 170.106 59.7121 166.773 57.8636C163.455 56 160.833 53.2879 158.909 49.7273C156.985 46.1667 156.023 41.8333 156.023 36.7273C156.023 31.6061 157 27.2652 158.955 23.7045C160.909 20.1439 163.553 17.4394 166.886 15.5909C170.22 13.7424 173.955 12.8182 178.091 12.8182C180.909 12.8182 183.515 13.2121 185.909 14C188.303 14.7727 190.409 15.9091 192.227 17.4091C194.045 18.8939 195.523 20.7197 196.659 22.8864C197.795 25.053 198.5 27.5303 198.773 30.3182ZM221.506 60.6591C217.839 60.6591 214.688 59.9091 212.051 58.4091C209.43 56.8939 207.407 54.7879 205.983 52.0909C204.574 49.3788 203.869 46.2348 203.869 42.6591C203.869 39.0682 204.574 35.9242 205.983 33.2273C207.407 30.5152 209.43 28.4091 212.051 26.9091C214.688 25.3939 217.839 24.6364 221.506 24.6364C225.172 24.6364 228.316 25.3939 230.938 26.9091C233.574 28.4091 235.597 30.5152 237.006 33.2273C238.43 35.9242 239.142 39.0682 239.142 42.6591C239.142 46.2348 238.43 49.3788 237.006 52.0909C235.597 54.7879 233.574 56.8939 230.938 58.4091C228.316 59.9091 225.172 60.6591 221.506 60.6591ZM221.574 52.2727C222.907 52.2727 224.036 51.8636 224.96 51.0455C225.884 50.2273 226.589 49.0909 227.074 47.6364C227.574 46.1818 227.824 44.5 227.824 42.5909C227.824 40.6515 227.574 38.9545 227.074 37.5C226.589 36.0455 225.884 34.9091 224.96 34.0909C224.036 33.2727 222.907 32.8636 221.574 32.8636C220.195 32.8636 219.028 33.2727 218.074 34.0909C217.134 34.9091 216.415 36.0455 215.915 37.5C215.43 38.9545 215.188 40.6515 215.188 42.5909C215.188 44.5 215.43 46.1818 215.915 47.6364C216.415 49.0909 217.134 50.2273 218.074 51.0455C219.028 51.8636 220.195 52.2727 221.574 52.2727ZM244.835 60V25.0909H255.403V31.5H255.79C256.517 29.3788 257.744 27.7045 259.472 26.4773C261.199 25.25 263.259 24.6364 265.653 24.6364C268.078 24.6364 270.153 25.2576 271.881 26.5C273.608 27.7424 274.706 29.4091 275.176 31.5H275.54C276.191 29.4242 277.464 27.7652 279.358 26.5227C281.252 25.2652 283.487 24.6364 286.062 24.6364C289.366 24.6364 292.047 25.697 294.108 27.8182C296.169 29.9242 297.199 32.8182 297.199 36.5V60H286.085V39.0455C286.085 37.303 285.638 35.9773 284.744 35.0682C283.85 34.1439 282.691 33.6818 281.267 33.6818C279.737 33.6818 278.532 34.1818 277.653 35.1818C276.79 36.1667 276.358 37.4924 276.358 39.1591V60H265.676V38.9318C265.676 37.3106 265.237 36.0303 264.358 35.0909C263.479 34.1515 262.32 33.6818 260.881 33.6818C259.911 33.6818 259.055 33.9167 258.312 34.3864C257.57 34.8409 256.987 35.4924 256.562 36.3409C256.153 37.1894 255.949 38.1894 255.949 39.3409V60H244.835ZM304.085 73.0909V25.0909H315.085V31.0682H315.426C315.881 30.0076 316.525 28.9848 317.358 28C318.206 27.0152 319.282 26.2121 320.585 25.5909C321.903 24.9545 323.479 24.6364 325.312 24.6364C327.737 24.6364 330.002 25.2727 332.108 26.5455C334.229 27.8182 335.941 29.7803 337.244 32.4318C338.547 35.0833 339.199 38.4621 339.199 42.5682C339.199 46.5227 338.57 49.8333 337.312 52.5C336.07 55.1667 334.388 57.1667 332.267 58.5C330.161 59.8333 327.82 60.5 325.244 60.5C323.487 60.5 321.964 60.2121 320.676 59.6364C319.388 59.0606 318.305 58.303 317.426 57.3636C316.562 56.4242 315.896 55.4167 315.426 54.3409H315.199V73.0909H304.085ZM314.972 42.5455C314.972 44.4242 315.222 46.0606 315.722 47.4545C316.237 48.8485 316.972 49.9318 317.926 50.7045C318.896 51.4621 320.055 51.8409 321.403 51.8409C322.767 51.8409 323.926 51.4621 324.881 50.7045C325.835 49.9318 326.555 48.8485 327.04 47.4545C327.54 46.0606 327.79 44.4242 327.79 42.5455C327.79 40.6667 327.54 39.0379 327.04 37.6591C326.555 36.2803 325.835 35.2121 324.881 34.4545C323.941 33.697 322.782 33.3182 321.403 33.3182C320.04 33.3182 318.881 33.6894 317.926 34.4318C316.972 35.1742 316.237 36.2348 315.722 37.6136C315.222 38.9924 314.972 40.6364 314.972 42.5455ZM354.864 60.5909C352.636 60.5909 350.659 60.2197 348.932 59.4773C347.22 58.7197 345.864 57.5833 344.864 56.0682C343.879 54.5379 343.386 52.6212 343.386 50.3182C343.386 48.3788 343.727 46.7424 344.409 45.4091C345.091 44.0758 346.03 42.9924 347.227 42.1591C348.424 41.3258 349.803 40.697 351.364 40.2727C352.924 39.8333 354.591 39.5379 356.364 39.3864C358.348 39.2045 359.947 39.0152 361.159 38.8182C362.371 38.6061 363.25 38.3106 363.795 37.9318C364.356 37.5379 364.636 36.9848 364.636 36.2727V36.1591C364.636 34.9924 364.235 34.0909 363.432 33.4545C362.629 32.8182 361.545 32.5 360.182 32.5C358.712 32.5 357.53 32.8182 356.636 33.4545C355.742 34.0909 355.174 34.9697 354.932 36.0909L344.682 35.7273C344.985 33.6061 345.765 31.7121 347.023 30.0455C348.295 28.3636 350.038 27.0455 352.25 26.0909C354.477 25.1212 357.152 24.6364 360.273 24.6364C362.5 24.6364 364.553 24.9015 366.432 25.4318C368.311 25.947 369.947 26.7045 371.341 27.7045C372.735 28.6894 373.811 29.9015 374.568 31.3409C375.341 32.7803 375.727 34.4242 375.727 36.2727V60H365.273V55.1364H365C364.379 56.3182 363.583 57.3182 362.614 58.1364C361.659 58.9545 360.53 59.5682 359.227 59.9773C357.939 60.3864 356.485 60.5909 354.864 60.5909ZM358.295 53.3182C359.492 53.3182 360.568 53.0758 361.523 52.5909C362.492 52.1061 363.265 51.4394 363.841 50.5909C364.417 49.7273 364.705 48.7273 364.705 47.5909V44.2727C364.386 44.4394 364 44.5909 363.545 44.7273C363.106 44.8636 362.621 44.9924 362.091 45.1136C361.561 45.2348 361.015 45.3409 360.455 45.4318C359.894 45.5227 359.356 45.6061 358.841 45.6818C357.795 45.8485 356.902 46.1061 356.159 46.4545C355.432 46.803 354.871 47.2576 354.477 47.8182C354.098 48.3636 353.909 49.0152 353.909 49.7727C353.909 50.9242 354.318 51.803 355.136 52.4091C355.97 53.0152 357.023 53.3182 358.295 53.3182ZM413 35.75L402.795 36.0227C402.689 35.2955 402.402 34.6515 401.932 34.0909C401.462 33.5152 400.848 33.0682 400.091 32.75C399.348 32.4167 398.485 32.25 397.5 32.25C396.212 32.25 395.114 32.5076 394.205 33.0227C393.311 33.5379 392.871 34.2348 392.886 35.1136C392.871 35.7955 393.144 36.3864 393.705 36.8864C394.28 37.3864 395.303 37.7879 396.773 38.0909L403.5 39.3636C406.985 40.0303 409.576 41.1364 411.273 42.6818C412.985 44.2273 413.848 46.2727 413.864 48.8182C413.848 51.2121 413.136 53.2955 411.727 55.0682C410.333 56.8409 408.424 58.2197 406 59.2045C403.576 60.1742 400.803 60.6591 397.682 60.6591C392.697 60.6591 388.765 59.6364 385.886 57.5909C383.023 55.5303 381.386 52.7727 380.977 49.3182L391.955 49.0455C392.197 50.3182 392.826 51.2879 393.841 51.9545C394.856 52.6212 396.152 52.9545 397.727 52.9545C399.152 52.9545 400.311 52.6894 401.205 52.1591C402.098 51.6288 402.553 50.9242 402.568 50.0455C402.553 49.2576 402.205 48.6288 401.523 48.1591C400.841 47.6742 399.773 47.2955 398.318 47.0227L392.227 45.8636C388.727 45.2273 386.121 44.053 384.409 42.3409C382.697 40.6136 381.848 38.4167 381.864 35.75C381.848 33.4167 382.47 31.4242 383.727 29.7727C384.985 28.1061 386.773 26.8333 389.091 25.9545C391.409 25.0758 394.144 24.6364 397.295 24.6364C402.023 24.6364 405.75 25.6288 408.477 27.6136C411.205 29.5833 412.712 32.2955 413 35.75ZM449.812 35.75L439.608 36.0227C439.502 35.2955 439.214 34.6515 438.744 34.0909C438.275 33.5152 437.661 33.0682 436.903 32.75C436.161 32.4167 435.297 32.25 434.312 32.25C433.025 32.25 431.926 32.5076 431.017 33.0227C430.123 33.5379 429.684 34.2348 429.699 35.1136C429.684 35.7955 429.956 36.3864 430.517 36.8864C431.093 37.3864 432.116 37.7879 433.585 38.0909L440.312 39.3636C443.797 40.0303 446.388 41.1364 448.085 42.6818C449.797 44.2273 450.661 46.2727 450.676 48.8182C450.661 51.2121 449.949 53.2955 448.54 55.0682C447.146 56.8409 445.237 58.2197 442.812 59.2045C440.388 60.1742 437.616 60.6591 434.494 60.6591C429.509 60.6591 425.578 59.6364 422.699 57.5909C419.835 55.5303 418.199 52.7727 417.79 49.3182L428.767 49.0455C429.009 50.3182 429.638 51.2879 430.653 51.9545C431.669 52.6212 432.964 52.9545 434.54 52.9545C435.964 52.9545 437.123 52.6894 438.017 52.1591C438.911 51.6288 439.366 50.9242 439.381 50.0455C439.366 49.2576 439.017 48.6288 438.335 48.1591C437.653 47.6742 436.585 47.2955 435.131 47.0227L429.04 45.8636C425.54 45.2273 422.934 44.053 421.222 42.3409C419.509 40.6136 418.661 38.4167 418.676 35.75C418.661 33.4167 419.282 31.4242 420.54 29.7727C421.797 28.1061 423.585 26.8333 425.903 25.9545C428.222 25.0758 430.956 24.6364 434.108 24.6364C438.835 24.6364 442.563 25.6288 445.29 27.6136C448.017 29.5833 449.525 32.2955 449.812 35.75Z" fill="white"/>
<path d="M198.773 91.3182H187.409C187.258 90.1515 186.947 89.0985 186.477 88.1591C186.008 87.2197 185.386 86.4167 184.614 85.75C183.841 85.0833 182.924 84.5758 181.864 84.2273C180.818 83.8636 179.659 83.6818 178.386 83.6818C176.129 83.6818 174.182 84.2348 172.545 85.3409C170.924 86.447 169.674 88.0455 168.795 90.1364C167.932 92.2273 167.5 94.7576 167.5 97.7273C167.5 100.818 167.939 103.409 168.818 105.5C169.712 107.576 170.962 109.144 172.568 110.205C174.189 111.25 176.106 111.773 178.318 111.773C179.561 111.773 180.689 111.614 181.705 111.295C182.735 110.977 183.636 110.515 184.409 109.909C185.197 109.288 185.841 108.538 186.341 107.659C186.856 106.765 187.212 105.758 187.409 104.636L198.773 104.705C198.576 106.765 197.977 108.795 196.977 110.795C195.992 112.795 194.636 114.621 192.909 116.273C191.182 117.909 189.076 119.212 186.591 120.182C184.121 121.152 181.288 121.636 178.091 121.636C173.879 121.636 170.106 120.712 166.773 118.864C163.455 117 160.833 114.288 158.909 110.727C156.985 107.167 156.023 102.833 156.023 97.7273C156.023 92.6061 157 88.2652 158.955 84.7045C160.909 81.1439 163.553 78.4394 166.886 76.5909C170.22 74.7424 173.955 73.8182 178.091 73.8182C180.909 73.8182 183.515 74.2121 185.909 75C188.303 75.7727 190.409 76.9091 192.227 78.4091C194.045 79.8939 195.523 81.7197 196.659 83.8864C197.795 86.053 198.5 88.5303 198.773 91.3182ZM215.051 121.591C212.824 121.591 210.847 121.22 209.119 120.477C207.407 119.72 206.051 118.583 205.051 117.068C204.066 115.538 203.574 113.621 203.574 111.318C203.574 109.379 203.915 107.742 204.597 106.409C205.278 105.076 206.218 103.992 207.415 103.159C208.612 102.326 209.991 101.697 211.551 101.273C213.112 100.833 214.778 100.538 216.551 100.386C218.536 100.205 220.134 100.015 221.347 99.8182C222.559 99.6061 223.438 99.3106 223.983 98.9318C224.544 98.5379 224.824 97.9848 224.824 97.2727V97.1591C224.824 95.9924 224.422 95.0909 223.619 94.4545C222.816 93.8182 221.733 93.5 220.369 93.5C218.9 93.5 217.718 93.8182 216.824 94.4545C215.93 95.0909 215.362 95.9697 215.119 97.0909L204.869 96.7273C205.172 94.6061 205.953 92.7121 207.21 91.0455C208.483 89.3636 210.225 88.0455 212.438 87.0909C214.665 86.1212 217.339 85.6364 220.46 85.6364C222.688 85.6364 224.741 85.9015 226.619 86.4318C228.498 86.947 230.134 87.7045 231.528 88.7045C232.922 89.6894 233.998 90.9015 234.756 92.3409C235.528 93.7803 235.915 95.4242 235.915 97.2727V121H225.46V116.136H225.188C224.566 117.318 223.771 118.318 222.801 119.136C221.847 119.955 220.718 120.568 219.415 120.977C218.127 121.386 216.672 121.591 215.051 121.591ZM218.483 114.318C219.68 114.318 220.756 114.076 221.71 113.591C222.68 113.106 223.453 112.439 224.028 111.591C224.604 110.727 224.892 109.727 224.892 108.591V105.273C224.574 105.439 224.188 105.591 223.733 105.727C223.294 105.864 222.809 105.992 222.278 106.114C221.748 106.235 221.203 106.341 220.642 106.432C220.081 106.523 219.544 106.606 219.028 106.682C217.983 106.848 217.089 107.106 216.347 107.455C215.619 107.803 215.059 108.258 214.665 108.818C214.286 109.364 214.097 110.015 214.097 110.773C214.097 111.924 214.506 112.803 215.324 113.409C216.157 114.015 217.21 114.318 218.483 114.318ZM242.71 121V86.0909H253.506V92.4545H253.869C254.506 90.1515 255.544 88.4394 256.983 87.3182C258.422 86.1818 260.097 85.6136 262.006 85.6136C262.521 85.6136 263.051 85.6515 263.597 85.7273C264.142 85.7879 264.65 85.8864 265.119 86.0227V95.6818C264.589 95.5 263.892 95.3561 263.028 95.25C262.18 95.1439 261.422 95.0909 260.756 95.0909C259.438 95.0909 258.248 95.3864 257.188 95.9773C256.142 96.553 255.316 97.3636 254.71 98.4091C254.119 99.4394 253.824 100.652 253.824 102.045V121H242.71ZM284.153 121.659C280.502 121.659 277.35 120.939 274.699 119.5C272.063 118.045 270.032 115.977 268.608 113.295C267.199 110.598 266.494 107.394 266.494 103.682C266.494 100.076 267.206 96.9242 268.631 94.2273C270.055 91.5152 272.062 89.4091 274.653 87.9091C277.244 86.3939 280.297 85.6364 283.812 85.6364C286.297 85.6364 288.57 86.0227 290.631 86.7955C292.691 87.5682 294.472 88.7121 295.972 90.2273C297.472 91.7424 298.638 93.6136 299.472 95.8409C300.305 98.053 300.722 100.591 300.722 103.455V106.227H270.381V99.7727H290.381C290.366 98.5909 290.085 97.5379 289.54 96.6136C288.994 95.6894 288.244 94.9697 287.29 94.4545C286.35 93.9242 285.267 93.6591 284.04 93.6591C282.797 93.6591 281.684 93.9394 280.699 94.5C279.714 95.0455 278.934 95.7955 278.358 96.75C277.782 97.6894 277.479 98.7576 277.449 99.9545V106.523C277.449 107.947 277.729 109.197 278.29 110.273C278.85 111.333 279.646 112.159 280.676 112.75C281.706 113.341 282.934 113.636 284.358 113.636C285.343 113.636 286.237 113.5 287.04 113.227C287.843 112.955 288.532 112.553 289.108 112.023C289.684 111.492 290.116 110.841 290.403 110.068L300.608 110.364C300.184 112.652 299.252 114.644 297.812 116.341C296.388 118.023 294.517 119.333 292.199 120.273C289.881 121.197 287.199 121.659 284.153 121.659Z" fill="#FFD8AA"/>
<circle cx="70" cy="78" r="59" stroke="#FFD8AA" stroke-width="10"/>
</g>
<defs>
<clipPath id="clip0_226_179">
<rect width="453" height="150" fill="white"/>
</clipPath>
</defs>
</svg>
